# Blender 4.4.3
# www.blender.org
mtllib room4.mtl
o Plane
v -1.000000 3.000000 1.000000
v 3.000000 3.000000 1.000000
v -1.000000 3.000000 -3.000000
v 3.000000 3.000000 -3.000000
v -1.000000 3.000000 -1.000000
v 3.000000 3.000000 -1.000000
v -2.000000 3.000000 -3.000000
v -2.000000 3.000000 -1.000000
v -1.000000 0.030000 0.970000
v -0.970000 0.000000 0.970000
v -0.970000 0.030000 1.000000
v -0.991213 0.008787 0.970000
v -0.987321 0.012679 0.987321
v -0.970000 0.008787 0.991213
v -0.991213 0.030000 0.991213
v 2.970000 0.000000 0.970000
v 3.000000 0.030000 0.970000
v 2.970000 0.030000 1.000000
v 2.991214 0.008787 0.970000
v 2.987321 0.012679 0.987321
v 2.991214 0.030000 0.991213
v 2.970000 0.008787 0.991213
v -1.000000 0.000000 -2.970000
v -1.000000 0.030000 -3.000000
v -1.000000 0.008787 -2.991214
v 3.000000 0.030000 -2.970000
v 2.970000 0.000000 -2.970000
v 2.970000 0.030000 -3.000000
v 2.991214 0.008787 -2.970000
v 2.987321 0.012679 -2.987321
v 2.970000 0.008787 -2.991214
v 2.991214 0.030000 -2.991214
v -1.000000 0.030000 -0.970000
v -1.030000 0.030000 -1.000000
v -0.970000 0.000000 -1.030000
v -1.008787 0.030000 -0.991213
v -1.000000 0.012679 -1.000000
v -1.000000 0.008787 -1.008787
v -0.991213 0.008787 -1.000000
v 3.000000 0.030000 -1.000000
v 2.970000 0.000000 -1.000000
v 2.991214 0.008787 -1.000000
v -1.970000 0.030000 -3.000000
v -1.970000 0.000000 -2.970000
v -2.000000 0.030000 -2.970000
v -1.970000 0.008787 -2.991214
v -1.987321 0.012679 -2.987321
v -1.991213 0.008787 -2.970000
v -1.991213 0.030000 -2.991214
v -2.000000 0.030000 -1.030000
v -1.970000 0.000000 -1.030000
v -1.970000 0.030000 -1.000000
v -1.991213 0.008787 -1.030000
v -1.987321 0.012679 -1.012679
v -1.970000 0.008787 -1.008787
v -1.991213 0.030000 -1.008787
v 3.000000 2.670000 -2.970000
v 2.970000 2.670000 -3.000000
v 3.030000 2.700000 -3.030000
v 2.991214 2.670000 -2.991214
v 3.000000 2.687321 -3.000000
v 3.000000 2.691213 -3.008786
v 3.008786 2.691213 -3.000000
v 2.970000 2.670000 1.000000
v 3.000000 2.670000 0.970000
v 3.030000 2.700000 1.030000
v 2.991214 2.670000 0.991213
v 3.000000 2.687321 1.000000
v 3.008786 2.691213 1.000000
v 3.000000 2.691213 1.008787
v -1.000000 2.670000 0.970000
v -0.970000 2.670000 1.000000
v -1.030000 2.700000 1.030000
v -0.991213 2.670000 0.991213
v -1.000000 2.687321 1.000000
v -1.000000 2.691213 1.008787
v -1.008787 2.691213 1.000000
v -1.000000 2.700000 -3.030000
v -1.000000 2.670000 -3.000000
v -1.000000 2.691213 -3.008786
v -1.000000 2.670000 -0.970000
v -1.030000 2.700000 -0.970000
v -1.030000 2.670000 -1.000000
v -1.008787 2.691213 -0.970000
v -1.012679 2.687320 -0.987321
v -1.030000 2.691213 -0.991213
v -1.008787 2.670000 -0.991213
v 3.000000 2.670000 -1.000000
v 3.030000 2.700000 -1.000000
v 3.008786 2.691213 -1.000000
v -1.970000 2.670000 -3.000000
v -2.000000 2.670000 -2.970000
v -2.030000 2.700000 -3.030000
v -1.991213 2.670000 -2.991214
v -2.000000 2.687321 -3.000000
v -2.008786 2.691213 -3.000000
v -2.000000 2.691213 -3.008786
v -2.000000 2.670000 -1.030000
v -1.970000 2.670000 -1.000000
v -2.030000 2.700000 -0.970000
v -1.991213 2.670000 -1.008787
v -2.000000 2.687321 -1.000000
v -2.000000 2.691213 -0.991213
v -2.008786 2.691213 -1.000000
v -1.242988 2.970000 -0.727012
v -1.212988 3.000000 -0.787012
v -1.272988 2.970000 -0.757012
v -1.234201 2.991214 -0.757012
v -1.242988 2.987321 -0.757012
v -1.242988 2.991214 -0.765799
v -1.251775 2.970000 -0.748225
v -1.242988 2.970000 1.212988
v -1.212988 2.970000 1.242988
v -1.212988 3.000000 1.212988
v -1.234201 2.970000 1.234201
v -1.230308 2.987321 1.230308
v -1.212988 2.991214 1.234201
v -1.234201 2.991214 1.212988
v 3.212988 2.970000 1.242988
v 3.242988 2.970000 1.212988
v 3.212988 3.000000 1.212988
v 3.234201 2.970000 1.234201
v 3.230308 2.987321 1.230308
v 3.234201 2.991214 1.212988
v 3.212988 2.991214 1.234201
v 3.212988 3.000000 -1.000000
v 3.242988 2.970000 -1.000000
v 3.234201 2.991214 -1.000000
v 3.242988 2.970000 -3.212988
v 3.212988 2.970000 -3.242988
v 3.212988 3.000000 -3.212988
v 3.234201 2.970000 -3.234201
v 3.230308 2.987321 -3.230308
v 3.212988 2.991214 -3.234201
v 3.234201 2.991214 -3.212988
v -1.000000 2.970000 -3.242988
v -1.000000 3.000000 -3.212988
v -1.000000 2.991214 -3.234201
v 3.242988 2.730000 -3.212988
v 3.212988 2.700000 -3.212988
v 3.212988 2.730000 -3.242988
v 3.234201 2.708787 -3.212988
v 3.230308 2.712680 -3.230308
v 3.212988 2.708787 -3.234201
v 3.234201 2.730000 -3.234201
v -1.242988 2.730000 1.212988
v -1.212988 2.700000 1.212988
v -1.212988 2.730000 1.242988
v -1.234201 2.708787 1.212988
v -1.230308 2.712680 1.230308
v -1.212988 2.708787 1.234201
v -1.234201 2.730000 1.234201
v -1.242988 2.730000 -0.727012
v -1.272988 2.730000 -0.757012
v -1.212988 2.700000 -0.787012
v -1.251775 2.730000 -0.748225
v -1.242988 2.712679 -0.757012
v -1.242988 2.708787 -0.765799
v -1.234201 2.708787 -0.757012
v 3.212988 2.700000 -1.000000
v 3.242988 2.730000 -1.000000
v 3.234201 2.708787 -1.000000
v -2.212988 3.000000 -3.212988
v -2.212988 2.970000 -3.242988
v -2.242988 2.970000 -3.212988
v -2.212988 2.991214 -3.234201
v -2.230309 2.987321 -3.230309
v -2.234201 2.970000 -3.234201
v -2.234201 2.991214 -3.212988
v -2.242988 2.970000 -0.787012
v -2.212988 2.970000 -0.757012
v -2.212988 3.000000 -0.787012
v -2.234201 2.970000 -0.765799
v -2.230308 2.987321 -0.769692
v -2.212988 2.991214 -0.765799
v -2.234201 2.991214 -0.787012
v -2.242988 2.730000 -0.787012
v -2.212988 2.700000 -0.787012
v -2.212988 2.730000 -0.757012
v -2.234201 2.708787 -0.787012
v -2.230308 2.712680 -0.769692
v -2.212988 2.708787 -0.765799
v -2.234201 2.730000 -0.765799
v 3.212988 2.730000 1.242988
v 3.212988 2.700000 1.212988
v 3.242988 2.730000 1.212988
v 3.212988 2.708787 1.234201
v 3.230308 2.712680 1.230308
v 3.234201 2.708787 1.212988
v 3.234201 2.730000 1.234201
v -1.000000 2.730000 -3.242988
v -1.000000 2.700000 -3.212988
v -1.000000 2.708787 -3.234201
v -2.212988 2.730000 -3.242988
v -2.212988 2.700000 -3.212988
v -2.242988 2.730000 -3.212988
v -2.212988 2.708787 -3.234201
v -2.230308 2.712680 -3.230308
v -2.234201 2.708787 -3.212988
v -2.234201 2.730000 -3.234201
vn 1.0000 -0.0000 -0.0000
vn -0.0000 1.0000 -0.0000
vn -0.0000 -1.0000 -0.0000
vn -0.0000 -0.0000 1.0000
vn -1.0000 -0.0000 -0.0000
vn -0.0000 -0.0000 -1.0000
vn -0.8865 -0.2817 0.3672
vn -0.3672 -0.8865 0.2817
vn -0.2817 -0.3672 0.8865
vn 0.2817 -0.8865 0.3672
vn 0.8865 -0.3672 0.2818
vn 0.3672 -0.2818 0.8865
vn 0.8865 -0.2818 -0.3672
vn 0.3672 -0.8865 -0.2818
vn 0.2818 -0.3672 -0.8865
vn -0.3582 -0.8086 0.4668
vn -0.3190 -0.5525 0.7701
vn -0.1667 -0.9718 0.1667
vn -0.3672 -0.2818 -0.8865
vn -0.2818 -0.8864 -0.3672
vn -0.8865 -0.3672 -0.2818
vn 0.3582 -0.8085 -0.4668
vn 0.3190 -0.5525 -0.7701
vn 0.1667 -0.9718 -0.1667
vn 0.4668 -0.8086 0.3582
vn 0.7701 -0.5525 0.3190
vn 0.1667 -0.9718 0.1667
vn -0.4668 -0.8086 -0.3582
vn -0.7701 -0.5525 -0.3190
vn -0.1668 -0.9718 -0.1667
vn -0.3582 -0.8085 0.4668
vn -0.7701 0.5525 0.3190
vn -0.1667 0.9718 0.1667
vn -0.4668 0.8086 0.3582
vn -0.8864 0.3672 0.2818
vn -0.3672 0.2818 0.8865
vn -0.2817 0.8865 0.3672
vn 0.2818 0.3672 0.8865
vn 0.8865 0.2817 0.3672
vn 0.3672 0.8864 0.2818
vn 0.8864 0.3672 -0.2818
vn 0.3672 0.2818 -0.8865
vn 0.2818 0.8865 -0.3672
vn 0.3672 -0.8865 -0.2817
vn -0.1668 -0.9718 0.1667
vn -0.3672 0.8865 -0.2817
vn -0.2817 0.3672 -0.8865
vn -0.8865 0.2817 -0.3672
vn -0.8865 0.3672 0.2818
vn -0.3672 0.2818 0.8864
vn -0.2818 0.8865 0.3672
vn -0.8865 -0.2818 0.3672
vn -0.3672 -0.8865 0.2818
vn -0.2818 -0.3672 0.8865
vn 0.3672 -0.2818 0.8864
vn 0.2818 -0.8864 0.3672
vn -0.3672 -0.2818 -0.8864
vn -0.8864 -0.3672 -0.2818
vn -0.3827 -0.9239 -0.0000
vn -0.9239 -0.3827 -0.0000
vn -0.0000 -0.9239 0.3827
vn -0.0000 -0.3827 0.9239
vn 0.3827 -0.9239 -0.0000
vn 0.9239 -0.3827 -0.0000
vn -0.0000 -0.9239 -0.3827
vn -0.0000 -0.3827 -0.9239
vn 0.3827 -0.0000 0.9239
vn 0.9239 -0.0000 0.3827
vn -0.3827 -0.0000 -0.9239
vn -0.9239 -0.0000 -0.3827
vn 0.3827 -0.0000 -0.9239
vn 0.9239 -0.0000 -0.3827
vn -0.3827 -0.0000 0.9239
vn -0.9239 -0.0000 0.3827
vn -0.9239 0.3827 -0.0000
vn -0.3827 0.9239 -0.0000
vn -0.0000 0.3827 0.9239
vn -0.0000 0.9239 0.3827
vn 0.9239 0.3827 -0.0000
vn 0.3827 0.9239 -0.0000
vn -0.0000 0.3827 -0.9239
vn -0.0000 0.9239 -0.3827
vn -0.8865 -0.3672 0.2817
vn -0.2817 -0.8865 0.3672
vn -0.3672 -0.2817 0.8865
vn 0.3672 -0.8865 0.2817
vn 0.8864 -0.2818 0.3672
vn 0.2817 -0.3672 0.8865
vn 0.8865 -0.3672 -0.2818
vn 0.2818 -0.8865 -0.3672
vn 0.3672 -0.2818 -0.8865
vn -0.7701 -0.5525 0.3190
vn -0.4668 -0.8086 0.3582
vn -0.3754 -0.8474 0.3754
vn -0.2818 -0.3672 -0.8865
vn -0.3672 -0.8865 -0.2817
vn -0.8865 -0.2818 -0.3672
vn -0.8864 -0.3672 0.2818
vn -0.2817 -0.8864 0.3672
vn -0.3672 -0.2818 0.8864
vn 0.7701 -0.5525 -0.3190
vn 0.4668 -0.8086 -0.3582
vn 0.3754 -0.8474 -0.3754
vn 0.3190 -0.5525 0.7701
vn 0.3582 -0.8086 0.4668
vn 0.3754 -0.8474 0.3754
vn -0.3754 -0.8475 0.3754
vn -0.2818 -0.8864 0.3672
vn -0.3190 -0.5525 -0.7701
vn -0.3582 -0.8086 -0.4668
vn -0.3754 -0.8474 -0.3754
vn -0.3582 0.8086 0.4668
vn -0.3754 0.8474 0.3754
vn -0.3190 0.5525 0.7701
vn -0.8865 0.2817 0.3672
vn -0.2818 0.3672 0.8865
vn -0.3672 0.8865 0.2817
vn 0.3672 0.2818 0.8864
vn 0.8865 0.3672 0.2818
vn 0.2818 0.8865 0.3672
vn 0.8864 0.2818 -0.3672
vn 0.2818 0.3672 -0.8865
vn 0.3672 0.8865 -0.2818
vn 0.8864 -0.3672 -0.2818
vn 0.2818 -0.8864 -0.3672
vn 0.3672 -0.2818 -0.8864
vn -0.2817 0.8865 -0.3672
vn -0.3672 0.2817 -0.8865
vn -0.8865 0.3672 -0.2817
vn -0.8864 0.2818 0.3672
vn -0.2817 0.3672 0.8865
vn 0.3672 -0.8865 0.2818
vn 0.8865 -0.2817 0.3672
vn -0.3672 -0.8865 -0.2818
vt 1.000000 0.992500
vt 1.000000 0.500000
vt 0.000000 1.000000
vt 0.000000 0.500000
vt 1.000000 1.000000
vt 1.000000 0.000000
vt 0.993312 0.000000
vt 0.006688 0.000000
vt 0.007500 0.507500
vt 0.992500 0.992500
vt 0.992500 0.500000
vt 0.000000 0.000000
vt 0.992500 0.000000
vt 0.007500 0.000000
vt 0.000000 0.007500
vt 0.000000 0.492500
vt 0.000000 1.000000
vt 0.000000 0.507500
vt 0.000000 0.992500
vt 0.992500 1.000000
vt 0.992500 1.000000
vt 1.000000 0.007500
vt 1.000000 0.007500
vt 0.007500 0.007500
vt 0.992500 0.007500
vt 0.000000 0.500000
vt 1.000000 0.993313
vt 0.992929 1.000000
vt 0.000000 0.506034
vt 0.000000 0.993966
vt 1.000000 0.006688
vt 0.000000 0.007500
vt 0.001057 0.001057
vt 0.000000 0.007500
vt 0.998943 0.001057
vt 0.992500 0.000000
vt 0.998943 0.998943
vt 1.000000 0.992500
vt 0.992500 1.000000
vt 0.000000 0.492500
vt 0.000000 1.000000
vt 0.000000 0.998943
vt 0.000000 0.992500
vt 0.000000 0.501057
vt 1.000000 0.992500
vt 0.992500 0.000000
vt 0.000000 0.000000
vt 0.000000 0.498943
vt 0.000942 0.001057
vt 0.000000 -0.007500
vt 0.999058 0.000942
vt 0.993313 0.000000
vt 1.006897 0.000000
vt 1.000000 0.993312
vt 0.999004 0.999058
vt 1.000000 1.006885
vt 1.007181 1.000000
vt 0.992930 1.000000
vt -0.006897 0.000000
vt 0.006687 0.000000
vt 0.000000 0.999150
vt 0.000000 0.500850
vt 0.000000 0.506034
vt 0.000000 0.500000
vt 0.000000 0.493610
vt 1.000000 -0.006885
vt 1.000000 0.006688
vt 0.000000 1.006390
vt 0.000000 0.993966
vt 0.000000 0.000000
vt 0.006687 0.000000
vt 1.000000 0.006687
vt 0.006687 0.000000
vt 1.000000 0.993312
vt 0.006687 0.000000
vt 0.006687 0.000000
s 0
f 26/1/1 88/2/1 40/2/1
f 6/2/2 3/3/2 5/4/2
f 100/4/3 195/3/3 93/3/3
f 4/5/2 137/3/2 3/3/2
f 66/6/3 160/2/3 185/6/3
f 184/7/4 113/8/4 148/8/4
f 35/9/3 27/10/3 41/11/3
f 93/3/3 192/3/3 78/3/3
f 2/6/2 5/4/2 1/12/2
f 18/13/4 72/14/4 11/14/4
f 146/15/5 105/16/5 153/16/5
f 59/5/3 160/2/3 89/2/3
f 3/3/2 8/4/2 5/4/2
f 24/3/6 91/17/6 79/3/6
f 50/18/5 92/19/5 45/19/5
f 59/5/3 192/3/3 140/5/3
f 24/3/6 58/20/6 28/21/6
f 1/12/2 106/4/2 114/12/2
f 40/2/1 65/22/1 17/23/1
f 23/19/3 51/18/3 44/19/3
f 10/24/3 41/11/3 16/25/3
f 83/26/4 52/4/4 34/4/4
f 4/5/2 126/2/2 131/5/2
f 107/4/4 179/4/4 154/4/4
f 7/3/2 137/3/2 163/3/2
f 2/6/2 126/2/2 6/2/2
f 139/27/1 127/2/1 161/2/1
f 1/12/2 121/6/2 2/6/2
f 7/3/2 172/4/2 8/4/2
f 191/3/6 130/28/6 141/28/6
f 177/29/5 165/30/5 196/30/5
f 8/4/2 106/4/2 5/4/2
f 161/2/1 120/31/1 186/31/1
f 66/6/3 147/12/3 73/12/3
f 100/4/3 155/4/3 178/4/3
f 191/3/6 164/3/6 136/3/6
f 73/12/3 155/4/3 82/4/3
f 9/32/7 13/33/7 15/12/7
f 10/24/8 13/33/8 12/34/8
f 11/14/9 13/33/9 14/14/9
f 16/25/10 20/35/10 22/36/10
f 17/23/11 20/35/11 19/22/11
f 18/13/12 20/35/12 21/6/12
f 26/1/13 30/37/13 32/5/13
f 27/10/14 30/37/14 29/38/14
f 28/21/15 30/37/15 31/39/15
f 33/40/16 37/4/16 39/4/16
f 34/4/17 37/4/17 36/4/17
f 39/4/18 38/4/18 35/9/18
f 43/41/19 47/42/19 49/3/19
f 44/19/20 47/42/20 46/3/20
f 45/19/21 47/42/21 48/43/21
f 50/18/7 54/44/7 56/4/7
f 51/18/8 54/44/8 53/18/8
f 52/4/9 54/44/9 55/4/9
f 57/45/22 61/5/22 63/5/22
f 58/20/23 61/5/23 60/5/23
f 63/5/24 62/5/24 59/5/24
f 64/46/25 68/6/25 70/6/25
f 65/22/26 68/6/26 67/6/26
f 70/6/27 69/6/27 66/6/27
f 71/34/16 75/12/16 77/12/16
f 72/14/17 75/12/17 74/12/17
f 77/47/18 76/12/18 73/12/18
f 81/40/7 85/48/7 87/4/7
f 82/4/8 85/48/8 84/4/8
f 83/26/9 85/48/9 86/4/9
f 91/17/28 95/3/28 97/3/28
f 92/19/29 95/3/29 94/3/29
f 97/3/30 96/3/30 93/3/30
f 98/18/31 102/4/31 104/4/31
f 99/4/17 102/4/17 101/4/17
f 104/4/18 103/4/18 100/4/18
f 105/16/32 109/4/32 111/4/32
f 110/4/33 108/4/33 106/4/33
f 107/4/34 109/4/34 110/4/34
f 112/34/35 116/49/35 118/34/35
f 113/8/36 116/49/36 115/12/36
f 114/12/37 116/49/37 117/50/37
f 119/7/38 123/51/38 125/52/38
f 120/31/39 123/51/39 122/6/39
f 121/6/40 123/51/40 124/53/40
f 129/54/41 133/55/41 135/27/41
f 130/28/42 133/55/42 132/5/42
f 131/5/43 133/55/43 134/56/43
f 139/27/13 143/55/13 145/5/13
f 140/5/44 143/55/44 142/57/44
f 141/28/15 143/55/15 144/58/15
f 146/15/7 150/49/7 152/12/7
f 147/12/8 150/49/8 149/59/8
f 148/8/9 150/49/9 151/60/9
f 153/16/16 157/4/16 159/4/16
f 154/4/17 157/4/17 156/4/17
f 159/4/45 158/4/45 155/4/45
f 163/3/46 167/61/46 169/3/46
f 164/3/47 167/61/47 166/3/47
f 165/30/48 167/61/48 168/3/48
f 170/29/49 174/62/49 176/63/49
f 171/64/50 174/62/50 173/4/50
f 172/4/51 174/62/51 175/65/51
f 177/29/52 181/62/52 183/4/52
f 178/4/53 181/62/53 180/4/53
f 179/4/54 181/62/54 182/4/54
f 184/7/55 188/51/55 190/6/55
f 185/6/56 188/51/56 187/66/56
f 186/31/11 188/51/11 189/67/11
f 194/41/57 198/61/57 200/3/57
f 195/3/20 198/61/20 197/68/20
f 196/30/58 198/61/58 199/69/58
f 10/24/59 39/4/59 35/9/59
f 12/34/60 33/40/60 39/4/60
f 16/25/61 14/14/61 10/24/61
f 22/36/62 11/14/62 14/14/62
f 27/10/63 42/2/63 41/11/63
f 29/38/64 40/2/64 42/2/64
f 27/10/65 25/3/65 31/39/65
f 25/3/66 28/21/66 31/39/66
f 18/13/67 67/6/67 64/46/67
f 21/6/68 65/22/68 67/6/68
f 41/11/63 19/22/63 16/25/63
f 42/2/64 17/23/64 19/22/64
f 43/41/69 94/3/69 91/17/69
f 49/3/70 92/19/70 94/3/70
f 51/18/59 48/43/59 44/19/59
f 53/18/60 45/19/60 48/43/60
f 44/19/65 25/3/65 23/19/65
f 46/3/66 24/3/66 25/3/66
f 51/18/61 38/4/61 55/4/61
f 55/4/62 34/4/62 52/4/62
f 58/20/71 32/5/71 28/21/71
f 60/5/72 26/1/72 32/5/72
f 72/14/73 15/12/73 11/14/73
f 74/12/74 9/32/74 15/12/74
f 81/40/74 36/4/74 33/40/74
f 87/4/73 34/4/73 36/4/73
f 99/4/73 56/4/73 52/4/73
f 101/4/74 50/18/74 56/4/74
f 82/4/61 103/4/61 86/4/61
f 86/4/62 99/4/62 83/26/62
f 93/3/59 104/4/59 100/4/59
f 96/3/60 98/18/60 104/4/60
f 89/2/63 69/6/63 90/2/63
f 90/2/64 65/22/64 88/2/64
f 91/17/66 80/3/66 79/3/66
f 97/3/65 78/3/65 80/3/65
f 66/6/61 76/12/61 70/6/61
f 76/12/62 64/46/62 70/6/62
f 78/3/65 62/5/65 80/3/65
f 80/3/66 58/20/66 79/3/66
f 82/4/59 77/70/59 73/12/59
f 84/40/60 71/34/60 77/70/60
f 89/2/63 63/5/63 59/5/63
f 90/2/64 57/45/64 63/5/64
f 105/16/75 118/34/75 108/4/75
f 108/4/76 114/12/76 106/4/76
f 119/7/77 117/71/77 113/8/77
f 125/52/78 114/12/78 117/71/78
f 129/54/79 128/2/79 127/2/79
f 135/27/80 126/2/80 128/2/80
f 136/3/81 134/58/81 130/28/81
f 138/3/82 131/5/82 134/58/82
f 130/28/71 145/5/71 141/28/71
f 145/5/72 129/54/72 139/27/72
f 113/8/73 152/12/73 148/8/73
f 152/12/74 112/34/74 146/15/74
f 127/2/79 124/72/79 120/31/79
f 128/2/80 121/6/80 124/72/80
f 105/16/74 156/4/74 153/16/74
f 111/4/73 154/4/73 156/4/73
f 170/29/75 169/69/75 165/30/75
f 176/63/76 163/3/76 169/69/76
f 171/64/73 183/4/73 179/4/73
f 183/4/74 170/29/74 177/29/74
f 137/3/82 166/3/82 163/3/82
f 138/3/81 164/3/81 166/3/81
f 172/4/78 110/4/78 106/4/78
f 175/4/77 107/4/77 110/4/77
f 119/7/67 190/6/67 122/6/67
f 190/6/68 120/31/68 122/6/68
f 194/41/69 168/3/69 164/3/69
f 200/3/70 165/30/70 168/3/70
f 154/4/62 182/4/62 158/4/62
f 158/4/61 178/4/61 155/4/61
f 196/30/60 180/63/60 177/29/60
f 199/69/59 178/4/59 180/63/59
f 186/31/64 162/2/64 161/2/64
f 189/72/63 160/2/63 162/2/63
f 192/3/65 197/3/65 193/3/65
f 197/3/66 191/3/66 193/3/66
f 148/8/62 187/52/62 184/7/62
f 151/73/61 185/6/61 187/52/61
f 141/28/66 193/3/66 191/3/66
f 144/58/65 192/3/65 193/3/65
f 153/16/60 149/34/60 146/15/60
f 159/4/59 147/12/59 149/34/59
f 161/2/64 142/74/64 139/27/64
f 162/2/63 140/5/63 142/74/63
f 9/32/5 81/40/5 33/40/5
f 26/1/1 57/45/1 88/2/1
f 6/2/2 4/5/2 3/3/2
f 100/4/3 178/4/3 195/3/3
f 4/5/2 131/5/2 137/3/2
f 66/6/3 89/2/3 160/2/3
f 184/7/4 119/7/4 113/8/4
f 35/9/3 23/19/3 27/10/3
f 93/3/3 195/3/3 192/3/3
f 2/6/2 6/2/2 5/4/2
f 18/13/4 64/46/4 72/14/4
f 146/15/5 112/34/5 105/16/5
f 59/5/3 140/5/3 160/2/3
f 3/3/2 7/3/2 8/4/2
f 24/3/6 43/41/6 91/17/6
f 50/18/5 98/18/5 92/19/5
f 59/5/3 78/3/3 192/3/3
f 24/3/6 79/3/6 58/20/6
f 1/12/2 5/4/2 106/4/2
f 40/2/1 88/2/1 65/22/1
f 23/19/3 35/18/3 51/18/3
f 10/24/3 35/9/3 41/11/3
f 83/26/4 99/4/4 52/4/4
f 4/5/2 6/2/2 126/2/2
f 107/4/4 171/64/4 179/4/4
f 7/3/2 3/3/2 137/3/2
f 2/6/2 121/6/2 126/2/2
f 139/27/1 129/54/1 127/2/1
f 1/12/2 114/12/2 121/6/2
f 7/3/2 163/3/2 172/4/2
f 191/3/6 136/3/6 130/28/6
f 177/29/5 170/29/5 165/30/5
f 8/4/2 172/4/2 106/4/2
f 161/2/1 127/2/1 120/31/1
f 66/6/3 185/6/3 147/12/3
f 100/4/3 82/4/3 155/4/3
f 191/3/6 194/41/6 164/3/6
f 73/12/3 147/12/3 155/4/3
f 9/32/83 12/34/83 13/33/83
f 10/24/84 14/14/84 13/33/84
f 11/14/85 15/12/85 13/33/85
f 16/25/86 19/22/86 20/35/86
f 17/23/87 21/6/87 20/35/87
f 18/13/88 22/36/88 20/35/88
f 26/1/89 29/38/89 30/37/89
f 27/10/90 31/39/90 30/37/90
f 28/21/91 32/5/91 30/37/91
f 33/40/92 36/4/92 37/4/92
f 34/4/93 38/4/93 37/4/93
f 39/4/94 37/4/94 38/4/94
f 43/41/95 46/3/95 47/42/95
f 44/19/96 48/43/96 47/42/96
f 45/19/97 49/3/97 47/42/97
f 50/18/98 53/18/98 54/44/98
f 51/18/99 55/4/99 54/44/99
f 52/4/100 56/4/100 54/44/100
f 57/45/101 60/5/101 61/5/101
f 58/20/102 62/5/102 61/5/102
f 63/5/103 61/5/103 62/5/103
f 64/46/104 67/6/104 68/6/104
f 65/22/105 69/6/105 68/6/105
f 70/6/106 68/6/106 69/6/106
f 71/34/92 74/12/92 75/12/92
f 72/14/93 76/12/93 75/12/93
f 77/47/107 75/12/107 76/12/107
f 81/40/98 84/40/98 85/48/98
f 82/4/108 86/4/108 85/48/108
f 83/26/85 87/4/85 85/48/85
f 91/17/109 94/3/109 95/3/109
f 92/19/110 96/3/110 95/3/110
f 97/3/111 95/3/111 96/3/111
f 98/18/92 101/4/92 102/4/92
f 99/4/93 103/4/93 102/4/93
f 104/4/107 102/4/107 103/4/107
f 105/16/112 108/4/112 109/4/112
f 110/4/113 109/4/113 108/4/113
f 107/4/114 111/4/114 109/4/114
f 112/34/115 115/12/115 116/49/115
f 113/8/116 117/75/116 116/49/116
f 114/12/117 118/34/117 116/49/117
f 119/7/118 122/6/118 123/51/118
f 120/31/119 124/72/119 123/51/119
f 121/6/120 125/52/120 123/51/120
f 129/54/121 132/5/121 133/55/121
f 130/28/122 134/58/122 133/55/122
f 131/5/123 135/27/123 133/55/123
f 139/27/124 142/74/124 143/55/124
f 140/5/125 144/58/125 143/55/125
f 141/28/126 145/5/126 143/55/126
f 146/15/98 149/34/98 150/49/98
f 147/12/108 151/76/108 150/49/108
f 148/8/100 152/12/100 150/49/100
f 153/16/92 156/4/92 157/4/92
f 154/4/93 158/4/93 157/4/93
f 159/4/107 157/4/107 158/4/107
f 163/3/127 166/3/127 167/61/127
f 164/3/128 168/3/128 167/61/128
f 165/30/129 169/69/129 167/61/129
f 170/29/130 173/4/130 174/62/130
f 171/64/131 175/4/131 174/62/131
f 172/4/117 176/63/117 174/62/117
f 177/29/98 180/63/98 181/62/98
f 178/4/108 182/4/108 181/62/108
f 179/4/100 183/4/100 181/62/100
f 184/7/88 187/52/88 188/51/88
f 185/6/132 189/72/132 188/51/132
f 186/31/133 190/6/133 188/51/133
f 194/41/95 197/3/95 198/61/95
f 195/3/134 199/69/134 198/61/134
f 196/30/97 200/3/97 198/61/97
f 10/24/59 12/34/59 39/4/59
f 12/34/60 9/32/60 33/40/60
f 16/25/61 22/36/61 14/14/61
f 22/36/62 18/13/62 11/14/62
f 27/10/63 29/38/63 42/2/63
f 29/38/64 26/1/64 40/2/64
f 27/10/65 23/19/65 25/3/65
f 25/3/66 24/3/66 28/21/66
f 18/13/67 21/6/67 67/6/67
f 21/6/68 17/23/68 65/22/68
f 41/11/63 42/2/63 19/22/63
f 42/2/64 40/2/64 17/23/64
f 43/41/69 49/3/69 94/3/69
f 49/3/70 45/19/70 92/19/70
f 51/18/59 53/18/59 48/43/59
f 53/18/60 50/18/60 45/19/60
f 44/19/65 46/3/65 25/3/65
f 46/3/66 43/41/66 24/3/66
f 51/18/61 35/18/61 38/4/61
f 55/4/62 38/4/62 34/4/62
f 58/20/71 60/5/71 32/5/71
f 60/5/72 57/45/72 26/1/72
f 72/14/73 74/12/73 15/12/73
f 74/12/74 71/34/74 9/32/74
f 81/40/74 87/4/74 36/4/74
f 87/4/73 83/26/73 34/4/73
f 99/4/73 101/4/73 56/4/73
f 101/4/74 98/18/74 50/18/74
f 82/4/61 100/4/61 103/4/61
f 86/4/62 103/4/62 99/4/62
f 93/3/59 96/3/59 104/4/59
f 96/3/60 92/19/60 98/18/60
f 89/2/63 66/6/63 69/6/63
f 90/2/64 69/6/64 65/22/64
f 91/17/66 97/3/66 80/3/66
f 97/3/65 93/3/65 78/3/65
f 66/6/61 73/12/61 76/12/61
f 76/12/62 72/14/62 64/46/62
f 78/3/65 59/5/65 62/5/65
f 80/3/66 62/5/66 58/20/66
f 82/4/59 84/40/59 77/70/59
f 84/40/60 81/40/60 71/34/60
f 89/2/63 90/2/63 63/5/63
f 90/2/64 88/2/64 57/45/64
f 105/16/75 112/34/75 118/34/75
f 108/4/76 118/34/76 114/12/76
f 119/7/77 125/52/77 117/71/77
f 125/52/78 121/6/78 114/12/78
f 129/54/79 135/27/79 128/2/79
f 135/27/80 131/5/80 126/2/80
f 136/3/81 138/3/81 134/58/81
f 138/3/82 137/3/82 131/5/82
f 130/28/71 132/5/71 145/5/71
f 145/5/72 132/5/72 129/54/72
f 113/8/73 115/12/73 152/12/73
f 152/12/74 115/12/74 112/34/74
f 127/2/79 128/2/79 124/72/79
f 128/2/80 126/2/80 121/6/80
f 105/16/74 111/4/74 156/4/74
f 111/4/73 107/4/73 154/4/73
f 170/29/75 176/63/75 169/69/75
f 176/63/76 172/4/76 163/3/76
f 171/64/73 173/4/73 183/4/73
f 183/4/74 173/4/74 170/29/74
f 137/3/82 138/3/82 166/3/82
f 138/3/81 136/3/81 164/3/81
f 172/4/78 175/4/78 110/4/78
f 175/4/77 171/64/77 107/4/77
f 119/7/67 184/7/67 190/6/67
f 190/6/68 186/31/68 120/31/68
f 194/41/69 200/3/69 168/3/69
f 200/3/70 196/30/70 165/30/70
f 154/4/62 179/4/62 182/4/62
f 158/4/61 182/4/61 178/4/61
f 196/30/60 199/69/60 180/63/60
f 199/69/59 195/3/59 178/4/59
f 186/31/64 189/72/64 162/2/64
f 189/72/63 185/6/63 160/2/63
f 192/3/65 195/3/65 197/3/65
f 197/3/66 194/41/66 191/3/66
f 148/8/62 151/73/62 187/52/62
f 151/73/61 147/12/61 185/6/61
f 141/28/66 144/58/66 193/3/66
f 144/58/65 140/5/65 192/3/65
f 153/16/60 159/4/60 149/34/60
f 159/4/59 155/4/59 147/12/59
f 161/2/64 162/2/64 142/74/64
f 162/2/63 160/2/63 140/5/63
f 9/32/5 71/34/5 81/40/5
