# Blender 4.4.3
# www.blender.org
mtllib room5.mtl
o Plane
v -1.000000 0.000000 1.000000
v 3.000000 0.000000 1.000000
v -1.000000 0.000000 -3.000000
v 3.000000 0.000000 -3.000000
v -1.000000 3.000000 1.000000
v 3.000000 3.000000 1.000000
v -1.000000 3.000000 -3.000000
v 3.000000 3.000000 -3.000000
v -1.000000 0.000000 -1.000000
v 3.000000 0.000000 -1.000000
v -1.000000 3.000000 -1.000000
v 3.000000 3.000000 -1.000000
v -2.000000 3.000000 -3.000000
v -2.000000 0.000000 -3.000000
v -2.000000 0.000000 -1.000000
v -2.000000 3.000000 -1.000000
v -1.500000 0.000000 -3.000000
v -1.500000 3.000000 -3.000000
v -1.500000 3.000000 -1.000000
v -1.500000 0.000000 -1.000000
v -1.000000 0.000000 0.000000
v -1.000000 3.000000 0.000000
v 3.000000 0.000000 0.000000
v 3.000000 3.000000 0.000000
v 1.000000 0.000000 1.000000
v 1.000000 0.000000 -3.000000
v 1.000000 3.000000 1.000000
v 1.000000 3.000000 -3.000000
v 1.000000 3.000000 -1.000000
v 1.000000 0.000000 -1.000000
v 1.000000 0.000000 0.000000
v 1.000000 3.000000 0.000000
v 3.000000 1.500000 -3.000000
v 3.000000 1.500000 1.000000
v -1.000000 1.500000 1.000000
v -1.000000 1.500000 -3.000000
v -1.000000 1.500000 -1.000000
v 3.000000 1.500000 -1.000000
v -2.000000 1.500000 -3.000000
v -2.000000 1.500000 -1.000000
v -1.500000 1.500000 -1.000000
v -1.500000 1.500000 -3.000000
v 3.000000 1.500000 0.000000
v -1.000000 1.500000 0.000000
v 1.000000 1.500000 1.000000
v 1.000000 1.500000 -3.000000
vn -0.0000 -1.0000 -0.0000
vn -0.0000 1.0000 -0.0000
vn 1.0000 -0.0000 -0.0000
vn -1.0000 -0.0000 -0.0000
vn -0.0000 -0.0000 -1.0000
vn -0.0000 -0.0000 1.0000
vt 0.500000 0.500000
vt 0.500000 1.000000
vt 1.000000 1.000000
vt 1.000000 0.500000
vt 0.000000 0.250000
vt 0.000000 0.000000
vt 0.000000 1.000000
vt 0.500000 0.000000
vt 1.000000 0.000000
vt 1.000000 0.250000
vt 0.500000 0.250000
vt 0.000000 0.500000
s 0
f 30/1/1 26/2/1 4/3/1 10/4/1
f 29/1/2 12/4/2 8/3/2 28/2/2
f 38/4/3 33/3/3 8/3/3 12/4/3
f 44/5/4 35/6/4 5/6/4 22/5/4
f 46/2/5 36/7/5 7/7/5 28/2/5
f 45/8/6 34/9/6 6/9/6 27/8/6
f 42/7/5 17/7/5 14/7/5 39/7/5
f 43/10/3 38/4/3 12/4/3 24/10/3
f 32/11/2 24/10/2 12/4/2 29/1/2
f 31/11/1 30/1/1 10/4/1 23/10/1
f 39/7/4 40/12/4 16/12/4 13/7/4
f 41/12/6 19/12/6 16/12/6 40/12/6
f 19/12/2 18/7/2 13/7/2 16/12/2
f 17/7/1 20/12/1 15/12/1 14/7/1
f 3/7/1 9/12/1 20/12/1 17/7/1
f 11/12/2 7/7/2 18/7/2 19/12/2
f 37/12/6 11/12/6 19/12/6 41/12/6
f 36/7/5 3/7/5 17/7/5 42/7/5
f 25/8/1 31/11/1 23/10/1 2/9/1
f 27/8/2 6/9/2 24/10/2 32/11/2
f 34/9/3 43/10/3 24/10/3 6/9/3
f 37/12/4 44/5/4 22/5/4 11/12/4
f 5/6/2 27/8/2 32/11/2 22/5/2
f 1/6/1 21/5/1 31/11/1 25/8/1
f 21/5/1 9/12/1 30/1/1 31/11/1
f 22/5/2 32/11/2 29/1/2 11/12/2
f 35/6/6 45/8/6 27/8/6 5/6/6
f 33/3/5 46/2/5 28/2/5 8/3/5
f 11/12/2 29/1/2 28/2/2 7/7/2
f 9/12/1 3/7/1 26/2/1 30/1/1
f 4/3/5 26/2/5 46/2/5 33/3/5
f 1/6/6 25/8/6 45/8/6 35/6/6
f 9/12/4 21/5/4 44/5/4 37/12/4
f 2/9/3 23/10/3 43/10/3 34/9/3
f 7/7/5 36/7/5 42/7/5 18/7/5
f 9/12/6 37/12/6 41/12/6 20/12/6
f 20/12/6 41/12/6 40/12/6 15/12/6
f 14/7/4 15/12/4 40/12/4 39/7/4
f 23/10/3 10/4/3 38/4/3 43/10/3
f 18/7/5 42/7/5 39/7/5 13/7/5
f 25/8/6 2/9/6 34/9/6 45/8/6
f 26/2/5 3/7/5 36/7/5 46/2/5
f 21/5/4 1/6/4 35/6/4 44/5/4
f 10/4/3 4/3/3 33/3/3 38/4/3
