# Blender 4.4.3
# www.blender.org
mtllib room8.mtl
o Plane
v -1.000000 0.000000 1.000000
v 3.000000 0.000000 1.000000
v -1.000000 0.000000 -3.000000
v 3.000000 0.000000 -3.000000
v -1.000000 3.000000 1.000000
v 3.000000 3.000000 1.000000
v -1.000000 3.000000 -3.000000
v 3.000000 3.000000 -3.000000
v -1.000000 0.000000 -1.000000
v 3.000000 0.000000 -1.000000
v -1.000000 3.000000 -1.000000
v 3.000000 3.000000 -1.000000
v -2.000000 3.000000 -3.000000
v -2.000000 0.000000 -3.000000
v -2.000000 0.000000 -1.000000
v -2.000000 3.000000 -1.000000
v -1.500000 0.000000 -3.000000
v -1.500000 3.000000 -3.000000
v -1.500000 3.000000 -1.000000
v -1.500000 0.000000 -1.000000
v -1.000000 0.000000 0.000000
v -1.000000 3.000000 0.000000
v 3.000000 0.000000 0.000000
v 3.000000 3.000000 0.000000
v 1.000000 0.000000 1.000000
v 1.000000 0.000000 -3.000000
v 1.000000 3.000000 1.000000
v 1.000000 3.000000 -3.000000
v 1.000000 3.000000 -1.000000
v 1.000000 0.000000 -1.000000
v 1.000000 0.000000 0.000000
v 1.000000 3.000000 0.000000
v 3.000000 1.500000 -3.000000
v 3.000000 1.500000 1.000000
v -1.000000 1.500000 1.000000
v -1.000000 1.500000 -3.000000
v -1.000000 1.500000 -1.000000
v 3.000000 1.500000 -1.000000
v -2.000000 1.500000 -3.000000
v -2.000000 1.500000 -1.000000
v -1.500000 1.500000 -1.000000
v -1.500000 1.500000 -3.000000
v 3.000000 1.500000 0.000000
v -1.000000 1.500000 0.000000
v 1.000000 1.500000 1.000000
v 1.000000 1.500000 -3.000000
v 3.000000 2.775000 -3.000000
v -1.000000 2.775000 1.000000
v -1.000000 2.775000 -1.000000
v 3.000000 2.775000 -1.000000
v -2.000000 2.775000 -1.000000
v -1.500000 2.775000 -3.000000
v 3.000000 2.775000 0.000000
v -1.000000 2.775000 0.000000
v 1.000000 2.775000 1.000000
v 1.000000 2.775000 -3.000000
v 3.000000 2.775000 1.000000
v -1.000000 2.775000 -3.000000
v -2.000000 2.775000 -3.000000
v -1.500000 2.775000 -1.000000
v -1.483841 3.000000 0.000000
v -1.483841 3.000000 1.483841
v 1.000000 3.000000 1.483841
v 3.483841 3.000000 1.483841
v 3.483841 3.000000 -1.000000
v 3.483841 3.000000 -3.483841
v 1.000000 3.000000 -3.483841
v -1.000000 3.000000 -3.483841
v 3.483841 2.775000 -3.483841
v -1.483841 2.775000 1.483841
v 3.483841 3.000000 0.000000
v -1.483841 2.775000 -0.516159
v -1.483841 3.000000 -0.516159
v 3.483841 2.775000 -1.000000
v -2.483841 3.000000 -3.483841
v -2.483841 3.000000 -0.516159
v -2.483841 2.775000 -0.516159
v -1.500000 3.000000 -3.483841
v -1.500000 3.000000 -0.516159
v -1.500000 2.775000 -3.483841
v 3.483841 2.775000 0.000000
v -1.483841 2.775000 0.000000
v 1.000000 2.775000 1.483841
v 1.000000 2.775000 -3.483841
v 3.483841 2.775000 1.483841
v -1.000000 2.775000 -3.483841
v -2.483841 2.775000 -3.483841
v -1.500000 2.775000 -0.516159
vn -0.0000 -1.0000 -0.0000
vn -0.0000 1.0000 -0.0000
vn -0.0000 -0.0000 -1.0000
vn -0.0000 -0.0000 1.0000
vn -1.0000 -0.0000 -0.0000
vn 1.0000 -0.0000 -0.0000
vt 0.181818 0.272727
vt 0.363636 0.272727
vt 0.363636 0.454545
vt 0.181818 0.454545
vt 0.545455 0.181818
vt 0.545455 -0.000000
vt 0.727273 0.000000
vt 0.727273 0.181818
vt 0.747727 0.545455
vt 0.747727 0.636364
vt 0.363636 0.181818
vt 0.363636 0.363636
vt 0.136364 0.863636
vt 0.272727 0.863636
vt 0.272727 0.909091
vt 0.136364 0.909091
vt 0.020455 0.636364
vt 0.020455 0.818182
vt 0.454545 0.181818
vt 0.454546 -0.000000
vt 0.090909 0.272727
vt 0.090909 0.454545
vt 0.363636 -0.000000
vt 0.747727 0.181818
vt 0.747727 0.363636
vt 0.545455 0.409091
vt 0.727273 0.409091
vt 0.727273 0.454545
vt 0.545455 0.454545
vt 0.363636 0.045455
vt 0.181818 0.045455
vt 0.181818 -0.000000
vt 0.363636 -0.000000
vt 0.363636 0.090909
vt 0.181818 0.090909
vt 0.545455 0.363636
vt 0.727273 0.363636
vt 0.454545 0.363636
vt 0.136364 0.818182
vt 0.272727 0.818182
vt 0.000000 0.272727
vt -0.000000 0.454545
vt 0.293182 0.545455
vt 0.293182 0.636364
vt 0.000000 0.090909
vt 0.090909 0.090909
vt 0.909091 0.656818
vt 0.727273 0.656818
vt 0.272727 0.454545
vt 0.272727 0.636364
vt 0.136364 0.636364
vt 0.136364 0.454545
vt 1.000000 0.000000
vt 1.000000 0.181818
vt 0.863636 0.181818
vt 0.863636 0.000000
vt 1.000000 0.454545
vt 1.000000 0.545455
vt 0.863636 0.545455
vt 0.863636 0.454545
vt 0.545455 0.545455
vt 0.409091 0.545455
vt 0.409091 0.454545
vt 0.020455 0.863636
vt 0.863636 0.409091
vt 1.000000 0.409091
vt 0.863636 0.363636
vt 1.000000 0.363636
vt 0.909091 0.909091
vt 0.727273 0.909091
vt 0.727273 0.772727
vt 0.909091 0.772727
vt 0.545455 0.636364
vt 0.409091 0.636364
vt 0.020455 0.909091
vt 0.863636 0.363636
vt 1.000000 0.636364
vt 0.863636 0.636364
vt 0.545455 0.818182
vt 0.409091 0.818182
vt 0.747727 0.363636
vt 0.747727 0.409091
vt 0.020455 0.454545
vt 0.747727 -0.000000
vt 0.747727 0.454545
vt 0.293182 0.454545
vt 0.293182 0.818182
vt 0.272727 0.818182
vt 0.272727 0.636364
vt 0.727273 0.636364
vt 0.727273 0.545455
vt 0.000000 0.818182
vt 0.000000 0.636364
vt 0.727273 0.181818
vt 0.272727 0.545455
vt 0.727273 0.636364
vt 0.909091 0.636364
vt 0.727273 0.409091
vt 0.727273 0.363636
vt 0.727273 0.454545
vt 0.272727 0.454545
vt 0.727273 -0.000000
vt 0.000000 0.454545
vt 0.000000 0.863636
vt 0.000000 0.909091
s 0
f 30/1/1 26/2/1 4/3/1 10/4/1
f 29/5/2 12/6/2 8/7/2 28/8/2
f 28/8/2 8/7/2 66/7/2 67/8/2
f 54/9/1 48/10/1 70/10/1 82/9/1
f 8/7/2 12/6/2 65/6/2 66/7/2
f 27/11/2 5/12/2 62/12/2 63/11/2
f 42/13/3 17/14/3 14/15/3 39/16/3
f 56/17/1 58/18/1 86/18/1 84/17/1
f 32/19/2 24/20/2 12/6/2 29/5/2
f 31/21/1 30/1/1 10/4/1 23/22/1
f 6/23/2 27/11/2 63/11/2 64/23/2
f 55/24/1 57/25/1 85/25/1 83/24/1
f 19/26/2 18/27/2 13/28/2 16/29/2
f 17/30/1 20/31/1 15/32/1 14/33/1
f 3/34/1 9/35/1 20/31/1 17/30/1
f 11/36/2 7/37/2 18/27/2 19/26/2
f 5/12/2 22/38/2 61/38/2 62/12/2
f 36/39/3 3/40/3 17/14/3 42/13/3
f 25/41/1 31/21/1 23/22/1 2/42/1
f 27/11/2 6/23/2 24/20/2 32/19/2
f 53/43/1 50/44/1 74/44/1 81/43/1
f 11/36/2 19/26/2 79/26/2 73/36/2
f 5/12/2 27/11/2 32/19/2 22/38/2
f 1/45/1 21/46/1 31/21/1 25/41/1
f 21/46/1 9/35/1 30/1/1 31/21/1
f 22/38/2 32/19/2 29/5/2 11/36/2
f 59/47/1 51/48/1 77/48/1 87/47/1
f 13/28/2 18/27/2 78/27/2 75/28/2
f 11/36/2 29/5/2 28/8/2 7/37/2
f 9/35/1 3/34/1 26/2/1 30/1/1
f 4/49/3 26/50/3 46/51/3 33/52/3
f 1/53/4 25/54/4 45/55/4 35/56/4
f 9/57/5 21/58/5 44/59/5 37/60/5
f 2/29/6 23/61/6 43/62/6 34/63/6
f 58/18/3 36/39/3 42/13/3 52/64/3
f 9/57/4 37/60/4 41/65/4 20/66/4
f 20/66/4 41/65/4 40/67/4 15/68/4
f 14/69/5 15/70/5 40/71/5 39/72/5
f 23/61/6 10/73/6 38/74/6 43/62/6
f 52/64/3 42/13/3 39/16/3 59/75/3
f 25/54/4 2/68/4 34/76/4 45/55/4
f 26/50/3 3/40/3 36/39/3 46/51/3
f 21/58/5 1/77/5 35/78/5 44/59/5
f 10/73/6 4/79/6 33/80/6 38/74/6
f 51/81/1 60/82/1 88/82/1 77/81/1
f 12/6/2 24/20/2 71/20/2 65/6/2
f 33/52/3 46/51/3 56/17/3 47/83/3
f 35/56/4 45/55/4 55/24/4 48/84/4
f 37/60/5 44/59/5 54/9/5 49/85/5
f 34/63/6 43/62/6 53/43/6 57/86/6
f 37/60/4 49/85/4 60/82/4 41/65/4
f 41/65/4 60/82/4 51/81/4 40/67/4
f 39/72/5 40/71/5 51/48/5 59/47/5
f 43/62/6 38/74/6 50/44/6 53/43/6
f 45/55/4 34/76/4 57/25/4 55/24/4
f 46/51/3 36/39/3 58/18/3 56/17/3
f 44/59/5 35/78/5 48/10/5 54/9/5
f 38/74/6 33/80/6 47/87/6 50/44/6
f 74/44/6 69/87/6 66/88/6 65/89/6
f 82/9/5 70/10/5 62/90/5 61/91/5
f 84/17/3 86/18/3 68/92/3 67/93/3
f 83/24/4 85/25/4 64/37/4 63/94/4
f 81/43/6 74/44/6 65/89/6 71/95/6
f 87/47/5 77/48/5 76/96/5 75/97/5
f 88/82/4 79/98/4 76/99/4 77/81/4
f 72/85/4 73/100/4 79/98/4 88/82/4
f 85/86/6 81/43/6 71/95/6 64/101/6
f 72/85/5 82/9/5 61/91/5 73/100/5
f 70/84/4 83/24/4 63/94/4 62/102/4
f 69/83/3 84/17/3 67/93/3 66/103/3
f 78/104/3 80/64/3 87/75/3 75/105/3
f 68/92/3 86/18/3 80/64/3 78/104/3
f 7/37/2 28/8/2 67/8/2 68/37/2
f 50/44/1 47/87/1 69/87/1 74/44/1
f 52/64/1 59/75/1 87/75/1 80/64/1
f 16/29/2 13/28/2 75/28/2 76/29/2
f 58/18/1 52/64/1 80/64/1 86/18/1
f 47/83/1 56/17/1 84/17/1 69/83/1
f 22/38/2 11/36/2 73/36/2 61/38/2
f 48/84/1 55/24/1 83/24/1 70/84/1
f 18/27/2 7/37/2 68/37/2 78/27/2
f 49/85/1 54/9/1 82/9/1 72/85/1
f 24/20/2 6/23/2 64/23/2 71/20/2
f 19/26/2 16/29/2 76/29/2 79/26/2
f 57/86/1 53/43/1 81/43/1 85/86/1
f 60/82/1 49/85/1 72/85/1 88/82/1
