# Blender 4.4.3
# www.blender.org
mtllib room6.mtl
o Plane
v -1.000000 0.000000 1.000000
v 3.000000 0.000000 1.000000
v -1.000000 0.000000 -3.000000
v 3.000000 0.000000 -3.000000
v -1.000000 3.000000 1.000000
v 3.000000 3.000000 1.000000
v -1.000000 3.000000 -3.000000
v 3.000000 3.000000 -3.000000
v -1.000000 0.000000 -1.000000
v 3.000000 0.000000 -1.000000
v -1.000000 3.000000 -1.000000
v 3.000000 3.000000 -1.000000
v -2.000000 3.000000 -3.000000
v -2.000000 0.000000 -3.000000
v -2.000000 0.000000 -1.000000
v -2.000000 3.000000 -1.000000
v -1.500000 0.000000 -3.000000
v -1.500000 3.000000 -3.000000
v -1.500000 3.000000 -1.000000
v -1.500000 0.000000 -1.000000
v -1.000000 0.000000 0.000000
v -1.000000 3.000000 0.000000
v 3.000000 0.000000 0.000000
v 3.000000 3.000000 0.000000
v 1.000000 0.000000 1.000000
v 1.000000 0.000000 -3.000000
v 1.000000 3.000000 1.000000
v 1.000000 3.000000 -3.000000
v 1.000000 3.000000 -1.000000
v 1.000000 0.000000 -1.000000
v 1.000000 0.000000 0.000000
v 1.000000 3.000000 0.000000
v 3.000000 1.500000 -3.000000
v 3.000000 1.500000 1.000000
v -1.000000 1.500000 1.000000
v -1.000000 1.500000 -3.000000
v -1.000000 1.500000 -1.000000
v 3.000000 1.500000 -1.000000
v -2.000000 1.500000 -3.000000
v -2.000000 1.500000 -1.000000
v -1.500000 1.500000 -1.000000
v -1.500000 1.500000 -3.000000
v 3.000000 1.500000 0.000000
v -1.000000 1.500000 0.000000
v 1.000000 1.500000 1.000000
v 1.000000 1.500000 -3.000000
vn -0.0000 -1.0000 -0.0000
vn -0.0000 1.0000 -0.0000
vn 1.0000 -0.0000 -0.0000
vn -1.0000 -0.0000 -0.0000
vn -0.0000 -0.0000 -1.0000
vn -0.0000 -0.0000 1.0000
vt 0.500000 1.000000
vt 1.000000 0.500000
vt 0.500000 0.500000
vt 1.000000 1.000000
vt 0.000000 0.000000
vt 0.000000 0.250000
vt 0.000000 1.000000
vt 1.000000 0.000000
vt 0.500000 0.000000
vt 1.000000 0.250000
vt 0.500000 0.250000
vt 0.000000 0.500000
s 0
f 26/1/1 10/2/1 30/3/1
f 12/2/2 28/1/2 29/3/2
f 33/4/3 12/2/3 38/2/3
f 35/5/4 22/6/4 44/6/4
f 36/7/5 28/1/5 46/1/5
f 34/8/6 27/9/6 45/9/6
f 17/7/5 39/7/5 42/7/5
f 38/2/3 24/10/3 43/10/3
f 24/10/2 29/3/2 32/11/2
f 30/3/1 23/10/1 31/11/1
f 40/12/4 13/7/4 39/7/4
f 19/12/6 40/12/6 41/12/6
f 18/7/2 16/12/2 19/12/2
f 20/12/1 14/7/1 17/7/1
f 9/12/1 17/7/1 3/7/1
f 7/7/2 19/12/2 11/12/2
f 11/12/6 41/12/6 37/12/6
f 3/7/5 42/7/5 36/7/5
f 31/11/1 2/8/1 25/9/1
f 6/8/2 32/11/2 27/9/2
f 43/10/3 6/8/3 34/8/3
f 44/6/4 11/12/4 37/12/4
f 27/9/2 22/6/2 5/5/2
f 21/6/1 25/9/1 1/5/1
f 9/12/1 31/11/1 21/6/1
f 32/11/2 11/12/2 22/6/2
f 45/9/6 5/5/6 35/5/6
f 46/1/5 8/4/5 33/4/5
f 29/3/2 7/7/2 11/12/2
f 3/7/1 30/3/1 9/12/1
f 26/1/5 33/4/5 4/4/5
f 25/9/6 35/5/6 1/5/6
f 21/6/4 37/12/4 9/12/4
f 23/10/3 34/8/3 2/8/3
f 36/7/5 18/7/5 7/7/5
f 37/12/6 20/12/6 9/12/6
f 41/12/6 15/12/6 20/12/6
f 15/12/4 39/7/4 14/7/4
f 10/2/3 43/10/3 23/10/3
f 42/7/5 13/7/5 18/7/5
f 2/8/6 45/9/6 25/9/6
f 3/7/5 46/1/5 26/1/5
f 1/5/4 44/6/4 21/6/4
f 4/4/3 38/2/3 10/2/3
f 26/1/1 4/4/1 10/2/1
f 12/2/2 8/4/2 28/1/2
f 33/4/3 8/4/3 12/2/3
f 35/5/4 5/5/4 22/6/4
f 36/7/5 7/7/5 28/1/5
f 34/8/6 6/8/6 27/9/6
f 17/7/5 14/7/5 39/7/5
f 38/2/3 12/2/3 24/10/3
f 24/10/2 12/2/2 29/3/2
f 30/3/1 10/2/1 23/10/1
f 40/12/4 16/12/4 13/7/4
f 19/12/6 16/12/6 40/12/6
f 18/7/2 13/7/2 16/12/2
f 20/12/1 15/12/1 14/7/1
f 9/12/1 20/12/1 17/7/1
f 7/7/2 18/7/2 19/12/2
f 11/12/6 19/12/6 41/12/6
f 3/7/5 17/7/5 42/7/5
f 31/11/1 23/10/1 2/8/1
f 6/8/2 24/10/2 32/11/2
f 43/10/3 24/10/3 6/8/3
f 44/6/4 22/6/4 11/12/4
f 27/9/2 32/11/2 22/6/2
f 21/6/1 31/11/1 25/9/1
f 9/12/1 30/3/1 31/11/1
f 32/11/2 29/3/2 11/12/2
f 45/9/6 27/9/6 5/5/6
f 46/1/5 28/1/5 8/4/5
f 29/3/2 28/1/2 7/7/2
f 3/7/1 26/1/1 30/3/1
f 26/1/5 46/1/5 33/4/5
f 25/9/6 45/9/6 35/5/6
f 21/6/4 44/6/4 37/12/4
f 23/10/3 43/10/3 34/8/3
f 36/7/5 42/7/5 18/7/5
f 37/12/6 41/12/6 20/12/6
f 41/12/6 40/12/6 15/12/6
f 15/12/4 40/12/4 39/7/4
f 10/2/3 38/2/3 43/10/3
f 42/7/5 39/7/5 13/7/5
f 2/8/6 34/8/6 45/9/6
f 3/7/5 36/7/5 46/1/5
f 1/5/4 35/5/4 44/6/4
f 4/4/3 33/4/3 38/2/3
