# Blender 4.4.3
# www.blender.org
mtllib room2.mtl
o Plane
v -1.000000 0.000000 1.000000
v 3.000000 0.000000 1.000000
v -1.000000 0.000000 -3.000000
v 3.000000 0.000000 -3.000000
v -1.000000 3.000000 1.000000
v 3.000000 3.000000 1.000000
v -1.000000 3.000000 -3.000000
v 3.000000 3.000000 -3.000000
v -1.000000 0.000000 -1.000000
v 3.000000 0.000000 -1.000000
v -1.000000 3.000000 -1.000000
v 3.000000 3.000000 -1.000000
v -2.000000 3.000000 -3.000000
v -2.000000 0.000000 -3.000000
v -2.000000 0.000000 -1.000000
v -2.000000 3.000000 -1.000000
vn -0.0000 -1.0000 -0.0000
vn -0.0000 1.0000 -0.0000
vn 1.0000 -0.0000 -0.0000
vn -1.0000 -0.0000 -0.0000
vn -0.0000 -0.0000 -1.0000
vn -0.0000 -0.0000 1.0000
vt 0.000000 1.000000
vt 1.000000 0.500000
vt 0.000000 0.500000
vt 1.000000 1.000000
vt 0.000000 0.000000
vt 1.000000 0.000000
s 0
f 3/1/1 10/2/1 9/3/1
f 12/2/2 7/1/2 11/3/2
f 4/4/3 12/2/3 10/2/3
f 1/5/4 11/3/4 9/3/4
f 3/1/5 8/4/5 4/4/5
f 2/6/6 5/5/6 1/5/6
f 3/1/5 13/1/5 7/1/5
f 10/2/3 6/6/3 2/6/3
f 6/6/2 11/3/2 5/5/2
f 9/3/1 2/6/1 1/5/1
f 15/3/4 13/1/4 14/1/4
f 11/3/6 15/3/6 9/3/6
f 7/1/2 16/3/2 11/3/2
f 9/3/1 14/1/1 3/1/1
f 3/1/1 4/4/1 10/2/1
f 12/2/2 8/4/2 7/1/2
f 4/4/3 8/4/3 12/2/3
f 1/5/4 5/5/4 11/3/4
f 3/1/5 7/1/5 8/4/5
f 2/6/6 6/6/6 5/5/6
f 3/1/5 14/1/5 13/1/5
f 10/2/3 12/2/3 6/6/3
f 6/6/2 12/2/2 11/3/2
f 9/3/1 10/2/1 2/6/1
f 15/3/4 16/3/4 13/1/4
f 11/3/6 16/3/6 15/3/6
f 7/1/2 13/1/2 16/3/2
f 9/3/1 15/3/1 14/1/1
